<?xml version="1.0" encoding="UTF-8" standalone="no"?>
<!-- Created with Inkscape (http://www.inkscape.org/) -->

<svg
   width="210mm"
   height="297mm"
   viewBox="0 0 210 297"
   version="1.1"
   id="svg1"
   inkscape:export-filename="svg_inkscape_even_letters.svg"
   inkscape:export-xdpi="96"
   inkscape:export-ydpi="96"
   inkscape:version="1.4 (e7c3feb1, 2024-10-09)"
   sodipodi:docname="gimp_inkscape_even_closer_light.svg"
   xmlns:inkscape="http://www.inkscape.org/namespaces/inkscape"
   xmlns:sodipodi="http://sodipodi.sourceforge.net/DTD/sodipodi-0.dtd"
   xmlns="http://www.w3.org/2000/svg"
   xmlns:svg="http://www.w3.org/2000/svg">
  <sodipodi:namedview
     id="namedview1"
     pagecolor="#ffffff"
     bordercolor="#000000"
     borderopacity="0.25"
     inkscape:showpageshadow="2"
     inkscape:pageopacity="0.0"
     inkscape:pagecheckerboard="0"
     inkscape:deskcolor="#d1d1d1"
     inkscape:document-units="mm"
     inkscape:zoom="0.87558384"
     inkscape:cx="516.22698"
     inkscape:cy="549.34774"
     inkscape:window-width="2560"
     inkscape:window-height="1387"
     inkscape:window-x="1728"
     inkscape:window-y="25"
     inkscape:window-maximized="0"
     inkscape:current-layer="layer1"
     showgrid="false">
    <inkscape:grid
       id="grid21"
       units="mm"
       originx="0"
       originy="0"
       spacingx="0.99999998"
       spacingy="1"
       empcolor="#0099e5"
       empopacity="0.30196078"
       color="#0099e5"
       opacity="0.14901961"
       empspacing="5"
       enabled="true"
       visible="false" />
  </sodipodi:namedview>
  <defs
     id="defs1" />
  <g
     inkscape:label="Layer 1"
     inkscape:groupmode="layer"
     id="layer1">
    <path
       style="font-size:84.6667px;line-height:0.7;font-family:'Major Mono Display';-inkscape-font-specification:'Major Mono Display';letter-spacing:-0.219604px;word-spacing:-0.203729px;white-space:pre;inline-size:228.145;fill:#dadadb;stroke:#000000;stroke-width:0.0871798;stroke-opacity:0;fill-opacity:1"
       d="m 141.9379,68.512805 q 0,-6.457536 3.5523,-12.004376 3.55238,-5.54686 9.564,-8.77562 6.10268,-3.2287 13.29842,-3.2287 7.19572,0 13.20742,3.2287 6.10268,3.22876 9.65498,8.77562 3.55238,5.54686 3.55238,12.004376 v 12.7495 q 0,6.45746 -3.55238,12.00432 -3.5523,5.546838 -9.65498,8.775615 -6.0117,3.22876 -13.20742,3.22876 -7.19574,0 -13.29842,-3.22876 -6.01162,-3.228777 -9.564,-8.775615 -3.5523,-5.54686 -3.5523,-12.00432 z m 16.57754,12.7495 q 0,3.97382 2.73258,6.78858 2.73256,2.81484 7.1046,2.81484 4.28096,0 7.01354,-2.81484 2.73256,-2.81476 2.73256,-6.78858 v -12.8323 q 0,-4.05666 -2.73256,-6.788676 -2.73258,-2.73202 -7.01354,-2.73202 -4.37204,0 -7.1046,2.73202 -2.73258,2.732016 -2.73258,6.788676 z"
       id="path21" />
    <path
       style="font-size:84.6667px;line-height:0.7;font-family:'Major Mono Display';-inkscape-font-specification:'Major Mono Display';letter-spacing:-0.219604px;word-spacing:-0.203729px;white-space:pre;inline-size:228.145;fill:#dadadb;stroke:#000000;stroke-width:0.0909446;stroke-opacity:0;fill-opacity:1"
       d="M 79.755829,105.2691 V 44.506009 h 3.66582 L 129.10364,85.800463 V 44.506009 h 3.47792 V 105.2691 Z"
       id="path20" />
    <path
       style="font-size:84.6667px;line-height:0.7;font-family:'Major Mono Display';-inkscape-font-specification:'Major Mono Display';letter-spacing:-0.219604px;word-spacing:-0.203729px;white-space:pre;inline-size:228.145;fill:#dadadb;stroke:#000000;stroke-width:0.0899816;stroke-opacity:0;fill-opacity:1"
       d="m 43.984738,105.26958 q -7.14382,0 -13.25366,-3.24756 -6.01586,-3.247557 -9.587759,-8.717195 -3.57192,-5.5551 -3.57192,-12.05024 V 44.505529 h 52.826675 v 36.749056 q 0,6.49514 -3.5719,12.05026 -3.571918,5.469638 -9.681758,8.717195 -6.01586,3.24756 -13.159678,3.24754 z"
       id="path5" />
    <path
       style="font-size:84.6667px;line-height:0.7;font-family:'Major Mono Display';-inkscape-font-specification:'Major Mono Display';letter-spacing:-0.219604px;word-spacing:-0.203729px;white-space:pre;inline-size:228.145;fill:#dadadb;stroke:#000000;stroke-width:0.0865844;stroke-opacity:0;fill-opacity:1"
       d="m 168.98192,175.3858 q -13.02744,0 -20.12516,-5.62964 -7.0079,-5.71244 -6.918,-17.0546 h 14.64466 q -0.0898,4.71902 3.05476,7.20268 3.1445,2.48368 8.8047,2.48368 4.6719,0 7.36724,-1.40744 2.69536,-1.40736 2.69536,-4.30502 0,-2.40092 -2.78518,-3.47716 -2.69534,-1.07624 -5.3907,-1.49024 -2.69534,-0.49686 -3.32428,-0.57968 -6.91792,-1.24186 -11.94928,-2.98042 -5.0313,-1.82136 -8.4454,-5.46414 -3.4141,-3.64272 -3.4141,-9.60348 0,-5.96082 3.4141,-10.10034 3.4141,-4.22222 9.07432,-6.29196 5.75004,-2.06972 12.48834,-2.06972 8.17586,0 14.10568,2.81478 6.01956,2.81486 9.43366,8.52738 1.70708,2.73202 2.06642,5.2985 0.35968,2.48368 0.35968,4.88452 h -14.64472 q 0,-4.47058 -2.60546,-6.54032 -2.60554,-2.15254 -8.08606,-2.15254 -4.4023,0 -6.8281,1.40744 -2.42584,1.40742 -2.42584,3.80834 0,2.64922 3.2344,3.89102 3.23438,1.2418 8.17578,2.2353 8.08606,1.49024 12.5783,2.89766 4.58208,1.32462 7.90636,4.80176 3.32428,3.47716 3.32428,9.76918 0,5.96082 -3.5938,10.26584 -3.5938,4.3051 -9.52356,6.62314 -5.83992,2.2353 -12.66812,2.2353 z"
       id="path19" />
    <path
       style="font-size:84.6667px;line-height:0.7;font-family:'Major Mono Display';-inkscape-font-specification:'Major Mono Display';letter-spacing:-0.219604px;word-spacing:-0.203729px;white-space:pre;inline-size:228.145;fill:#dadadb;stroke:#000000;stroke-width:0.0931686;stroke-opacity:0;fill-opacity:1"
       d="M 132.5328,245.49702 H 79.753507 V 184.7361 h 26.735013 q 8.5828,0 14.00872,2.70632 5.32724,2.61906 8.28676,7.15864 2.95962,4.53966 2.95962,10.03954 0,6.80934 -4.73528,12.22198 -4.73536,5.3253 -11.93702,7.07132 z M 85.968587,187.96624 112.8023,221.14026 q 6.6098,-1.2222 10.95048,-5.84906 4.34072,-4.62696 4.34072,-10.6506 0,-4.80156 -2.6636,-8.73 -2.66366,-3.92852 -7.4976,-6.0237 -4.3408,-1.92066 -11.34516,-1.92066 z m -2.56496,2.09524 v 31.34068 h 25.353913 z m 0,52.20548 h 42.223613 l -14.40338,-17.722 -3.0583,0.0874 H 83.403627 Z"
       id="path18" />
    <path
       style="font-size:84.6667px;line-height:0.7;font-family:'Major Mono Display';-inkscape-font-specification:'Major Mono Display';letter-spacing:-0.219604px;word-spacing:-0.203729px;white-space:pre;inline-size:228.145;fill:#dadadb;stroke:#000000;stroke-width:0.0909444;stroke-opacity:0;fill-opacity:1"
       d="M 42.292798,245.49812 V 200.10046 H 17.571875 V 184.735 h 52.825723 v 15.36546 h -24.72094 v 45.39766 z"
       id="path17" />
    <path
       style="font-size:84.6667px;line-height:0.7;font-family:'Major Mono Display';-inkscape-font-specification:'Major Mono Display';letter-spacing:-0.219604px;word-spacing:-0.203729px;white-space:pre;inline-size:228.145;fill:#dadadb;stroke:#000000;stroke-width:0.0865844;stroke-opacity:0;fill-opacity:1"
       d="m 168.98192,245.5003 q -13.02744,0 -20.12516,-5.6297 -7.0079,-5.71238 -6.918,-17.05454 h 14.64466 q -0.0898,4.71902 3.05476,7.20268 3.1445,2.48368 8.8047,2.48368 4.6719,0 7.36724,-1.40744 2.69536,-1.40742 2.69536,-4.30502 0,-2.40092 -2.78518,-3.47716 -2.69534,-1.07624 -5.3907,-1.49024 -2.69534,-0.49686 -3.32428,-0.57968 -6.91792,-1.24186 -11.94928,-2.98042 -5.0313,-1.82136 -8.4454,-5.46406 -3.4141,-3.6428 -3.4141,-9.60362 0,-5.96082 3.4141,-10.10022 3.4141,-4.22228 9.07432,-6.29202 5.75004,-2.06972 12.48834,-2.06972 8.17586,0 14.10568,2.81484 6.01956,2.81486 9.43366,8.52724 1.70708,2.73204 2.06642,5.29852 0.35968,2.48366 0.35968,4.88458 h -14.64472 q 0,-4.47064 -2.60546,-6.54038 -2.60554,-2.15248 -8.08606,-2.15248 -4.4023,0 -6.8281,1.40736 -2.42584,1.40744 -2.42584,3.80834 0,2.64924 3.2344,3.8911 3.23438,1.24186 8.17578,2.2353 8.08606,1.49024 12.5783,2.89766 4.58208,1.32462 7.90636,4.80176 3.32428,3.47716 3.32428,9.76918 0,5.96082 -3.5938,10.26578 -3.5938,4.3051 -9.52356,6.6232 -5.83992,2.2353 -12.66812,2.2353 z"
       id="path16" />
    <path
       style="font-size:84.6667px;line-height:0.7;font-family:'Major Mono Display';-inkscape-font-specification:'Major Mono Display';letter-spacing:-0.219604px;word-spacing:-0.203729px;white-space:pre;inline-size:228.145;fill:#dadadb;stroke:#000000;stroke-width:0.08718;stroke-opacity:0;fill-opacity:1"
       d="m 79.75395,138.62731 q 0,-6.45752 3.55238,-12.00438 3.55223,-5.54678 9.56387,-8.77556 6.102761,-3.22876 13.2985,-3.22876 7.19578,0 13.20742,3.22876 6.10271,3.22878 9.65501,8.77556 3.5523,5.54686 3.5523,12.00438 v 12.7495 q 0,6.45752 -3.5523,12.00438 -3.5523,5.54678 -9.65501,8.77556 -6.01164,3.22876 -13.20742,3.22876 -7.195739,0 -13.2985,-3.22876 -6.01164,-3.22878 -9.56387,-8.77556 -3.55238,-5.54686 -3.55238,-12.00438 z m 16.577491,12.7495 q 0,3.97382 2.73258,6.78864 2.732579,2.81484 7.104679,2.81484 4.28104,0 7.01354,-2.81484 2.73256,-2.81482 2.73256,-6.78864 v -12.8323 q 0,-4.05664 -2.73256,-6.78872 -2.7325,-2.73202 -7.01354,-2.73202 -4.3721,0 -7.104679,2.73202 -2.73258,2.73208 -2.73258,6.78872 z"
       id="path15" />
    <path
       style="font-size:84.6667px;line-height:0.7;font-family:'Major Mono Display';-inkscape-font-specification:'Major Mono Display';letter-spacing:-0.219604px;word-spacing:-0.203729px;white-space:pre;inline-size:228.145;fill:#dadadb;stroke:#000000;stroke-width:0.0927756;stroke-opacity:0;fill-opacity:1"
       d="m 17.572792,175.38269 v -60.76126 h 25.335923 q 7.434468,0 13.695088,3.31748 6.35844,3.3174 10.075638,8.99182 3.71724,5.58734 3.71724,12.22216 v 11.69832 q 0,6.6349 -3.71724,12.30948 -3.717198,5.58718 -10.075638,8.9046 -6.26062,3.3174 -13.695088,3.3174 z"
       id="path6" />
  </g>
</svg>
